<svg xmlns="http://www.w3.org/2000/svg" viewBox="0 0 700 320" style="font-family: system-ui, -apple-system, sans-serif; background: #fff; max-width:700px; width:100%; height:auto; min-height:210px;">
<text x="350.0" y="20" text-anchor="middle" fill="#333" font-size="16" font-weight="600">What to do about it</text>
<text x="350.0" y="36" text-anchor="middle" fill="#777" font-size="10.5">Scaffold interventions: detect the pattern, nudge the behavior</text>
<rect x="20.0" y="46" width="210" height="238" rx="6" fill="#f8f7f5" stroke="#e0ddd8" stroke-width="1"/>
<circle cx="38.0" cy="64" r="10" fill="#3a9e96"/>
<text x="38.0" y="68" text-anchor="middle" fill="#fff" font-size="11" font-weight="700">1</text>
<g transform="translate(182.0,50)">
  <circle cx="18" cy="18" r="14" fill="none" stroke="#3a9e96" stroke-width="2"/>
  <line x1="18" y1="18" x2="18" y2="10" stroke="#3a9e96" stroke-width="2" stroke-linecap="round"/>
  <line x1="18" y1="18" x2="24" y2="18" stroke="#3a9e96" stroke-width="2" stroke-linecap="round"/>
</g>
<text x="34.0" y="94" fill="#3a9e96" font-size="13" font-weight="700">Delay broad testing</text>
<rect x="30.0" y="102" width="190" height="24" rx="4" fill="#2c2c2c"/>
<text x="38.0" y="118" fill="#e0e0e0" font-size="8.5" font-family="'SF Mono', 'Menlo', 'Consolas', monospace">edited_files &gt;= 2 AND tests_run == 0</text>
<text x="34.0" y="144" fill="#333" font-size="10.5">You’ve edited multiple files.</text>
<text x="34.0" y="158" fill="#333" font-size="10.5">Consider focusing your testing on</text>
<text x="34.0" y="172" fill="#333" font-size="10.5">the specific change rather than</text>
<text x="34.0" y="186" fill="#333" font-size="10.5">running the full suite.</text>
<rect x="245.0" y="46" width="210" height="238" rx="6" fill="#f8f7f5" stroke="#e0ddd8" stroke-width="1"/>
<circle cx="263.0" cy="64" r="10" fill="#3a9e96"/>
<text x="263.0" y="68" text-anchor="middle" fill="#fff" font-size="11" font-weight="700">2</text>
<g transform="translate(407.0,50)">
  <circle cx="16" cy="16" r="10" fill="none" stroke="#3a9e96" stroke-width="2"/>
  <line x1="23" y1="23" x2="30" y2="30" stroke="#3a9e96" stroke-width="2.5" stroke-linecap="round"/>
  <polyline points="11,16 15,20 21,12" fill="none" stroke="#3a9e96" stroke-width="1.8" stroke-linecap="round" stroke-linejoin="round"/>
</g>
<text x="259.0" y="94" fill="#3a9e96" font-size="13" font-weight="700">Verify before expanding</text>
<rect x="255.0" y="102" width="190" height="24" rx="4" fill="#2c2c2c"/>
<text x="263.0" y="118" fill="#e0e0e0" font-size="8.5" font-family="'SF Mono', 'Menlo', 'Consolas', monospace">new_files_read &gt;= 5 AND tests_run == 0</text>
<text x="259.0" y="144" fill="#333" font-size="10.5">You’ve explored several files.</text>
<text x="259.0" y="158" fill="#333" font-size="10.5">Before reading more, verify your</text>
<text x="259.0" y="172" fill="#333" font-size="10.5">current understanding by running</text>
<text x="259.0" y="186" fill="#333" font-size="10.5">relevant tests.</text>
<rect x="470.0" y="46" width="210" height="238" rx="6" fill="#f8f7f5" stroke="#e0ddd8" stroke-width="1"/>
<circle cx="488.0" cy="64" r="10" fill="#3a9e96"/>
<text x="488.0" y="68" text-anchor="middle" fill="#fff" font-size="11" font-weight="700">3</text>
<g transform="translate(632.0,50)">
  <line x1="18" y1="30" x2="18" y2="14" stroke="#3a9e96" stroke-width="2" stroke-linecap="round"/>
  <line x1="18" y1="14" x2="8" y2="6" stroke="#3a9e96" stroke-width="2" stroke-linecap="round"/>
  <line x1="18" y1="14" x2="28" y2="6" stroke="#3a9e96" stroke-width="2" stroke-linecap="round"/>
  <circle cx="8" cy="6" r="3" fill="none" stroke="#3a9e96" stroke-width="1.8"/>
  <circle cx="28" cy="6" r="3" fill="none" stroke="#3a9e96" stroke-width="1.8"/>
  <circle cx="18" cy="30" r="3" fill="#3a9e96"/>
</g>
<text x="484.0" y="94" fill="#3a9e96" font-size="13" font-weight="700">Stop hammering one file</text>
<rect x="480.0" y="102" width="190" height="24" rx="4" fill="#2c2c2c"/>
<text x="488.0" y="118" fill="#e0e0e0" font-size="8.5" font-family="'SF Mono', 'Menlo', 'Consolas', monospace">same_file_edits &gt;= 3</text>
<text x="484.0" y="144" fill="#333" font-size="10.5">You’ve edited this file 3+ times.</text>
<text x="484.0" y="158" fill="#333" font-size="10.5">Step back and verify before making</text>
<text x="484.0" y="172" fill="#333" font-size="10.5">more edits to this file.</text>
<text x="350.0" y="308" text-anchor="middle" fill="#777" font-size="8.5">Detection runs in real-time during agent execution. Open source: github.com/orban/moirai</text>
</svg>