<svg xmlns="http://www.w3.org/2000/svg" viewBox="0 0 700 368" style="max-width:700px;width:100%;height:auto;min-height:250px;font-family:'Geist Sans', system-ui, -apple-system, sans-serif">
  <rect width="700" height="368" fill="#fafaf8"/>
  <text x="350.0" y="22" text-anchor="middle" font-size="17" font-weight="600" fill="#232220" letter-spacing="-0.02em">Failure modes at scale</text>
  <text x="350.0" y="42" text-anchor="middle" font-size="11" fill="#8a8784">1,096 mixed-outcome tasks · 32,472 divergence pairs · top 8 modes shown</text>
<line x1="263.0932203389831" y1="50" x2="263.0932203389831" y2="338" stroke="#e5e2de" stroke-width="1"/>
<text x="263.0932203389831" y="352" text-anchor="middle" fill="#8a8784" font-size="9">5%</text>
<line x1="336.1864406779661" y1="50" x2="336.1864406779661" y2="338" stroke="#e5e2de" stroke-width="1"/>
<text x="336.1864406779661" y="352" text-anchor="middle" fill="#8a8784" font-size="9">10%</text>
<line x1="409.27966101694915" y1="50" x2="409.27966101694915" y2="338" stroke="#e5e2de" stroke-width="1"/>
<text x="409.27966101694915" y="352" text-anchor="middle" fill="#8a8784" font-size="9">15%</text>
<line x1="482.37288135593224" y1="50" x2="482.37288135593224" y2="338" stroke="#e5e2de" stroke-width="1"/>
<text x="482.37288135593224" y="352" text-anchor="middle" fill="#8a8784" font-size="9">20%</text>
<line x1="555.4661016949153" y1="50" x2="555.4661016949153" y2="338" stroke="#e5e2de" stroke-width="1"/>
<text x="555.4661016949153" y="352" text-anchor="middle" fill="#8a8784" font-size="9">25%</text>
<line x1="628.5593220338983" y1="50" x2="628.5593220338983" y2="338" stroke="#e5e2de" stroke-width="1"/>
<text x="628.5593220338983" y="352" text-anchor="middle" fill="#8a8784" font-size="9">30%</text>
<text x="172" y="72.0" text-anchor="end" fill="#232220" font-size="11.5">Search strategy divergence</text>
<rect x="190" y="54" width="460.0" height="28" rx="3" fill="#5a7a64" opacity="1.00"/>
<text x="656.0" y="72.0" text-anchor="start" fill="#232220" font-size="11" font-weight="600">31%</text>
<text x="172" y="108.0" text-anchor="end" fill="#232220" font-size="11.5">Wasted orientation</text>
<rect x="190" y="90" width="259.2" height="28" rx="3" fill="#5a7a64" opacity="0.95"/>
<text x="455.23728813559325" y="108.0" text-anchor="start" fill="#232220" font-size="11" font-weight="600">18%</text>
<text x="172" y="144.0" text-anchor="end" fill="#232220" font-size="11.5">Execution approach divergence</text>
<rect x="190" y="126" width="215.9" height="28" rx="3" fill="#5a7a64" opacity="0.90"/>
<text x="411.8686440677966" y="144.0" text-anchor="start" fill="#232220" font-size="11" font-weight="600">15%</text>
<text x="172" y="180.0" text-anchor="end" fill="#232220" font-size="11.5">Wrong file targeted</text>
<rect x="190" y="162" width="176.9" height="28" rx="3" fill="#5a7a64" opacity="0.85"/>
<text x="372.885593220339" y="180.0" text-anchor="start" fill="#232220" font-size="11" font-weight="600">12%</text>
<text x="172" y="216.0" text-anchor="end" fill="#232220" font-size="11.5">Test timing divergence</text>
<rect x="190" y="198" width="145.2" height="28" rx="3" fill="#5a7a64" opacity="0.80"/>
<text x="341.2118644067797" y="216.0" text-anchor="start" fill="#232220" font-size="11" font-weight="600">10%</text>
<text x="172" y="252.0" text-anchor="end" fill="#232220" font-size="11.5">Reading strategy divergence</text>
<rect x="190" y="234" width="127.7" height="28" rx="3" fill="#5a7a64" opacity="0.75"/>
<text x="323.6694915254237" y="252.0" text-anchor="start" fill="#232220" font-size="11" font-weight="600">9%</text>
<text x="172" y="288.0" text-anchor="end" fill="#232220" font-size="11.5">Skipped reasoning</text>
<rect x="190" y="270" width="44.3" height="28" rx="3" fill="#5a7a64" opacity="0.70"/>
<text x="240.34322033898306" y="288.0" text-anchor="start" fill="#232220" font-size="11" font-weight="600">3%</text>
<text x="172" y="324.0" text-anchor="end" fill="#232220" font-size="11.5">Write strategy divergence</text>
<rect x="190" y="306" width="32.6" height="28" rx="3" fill="#5a7a64" opacity="0.65"/>
<text x="228.64830508474577" y="324.0" text-anchor="start" fill="#232220" font-size="11" font-weight="600">2%</text>
<text x="350.0" y="362" text-anchor="middle" fill="#8a8784" font-size="9.5" font-style="italic">Divergence points clustered by TF-IDF content similarity</text>
</svg>