<svg xmlns="http://www.w3.org/2000/svg" viewBox="0 0 700 300" style="max-width:700px;width:100%;height:auto;min-height:200px" font-family="system-ui, -apple-system, sans-serif">
<rect width="700" height="300" fill="white"/>
<text x="350.0" y="22" text-anchor="middle" font-size="15" font-weight="700" fill="#333">Does later testing predict success? (1,032 tasks)</text>
<text x="350.0" y="40" text-anchor="middle" font-size="11" fill="#888">Per-task pass-rate delta: (late testers) minus (early testers)</text>
<line x1="60" y1="244.0" x2="670" y2="244.0" stroke="#eee" stroke-width="0.5"/>
<text x="52" y="248.0" text-anchor="end" font-size="9" fill="#888">0</text>
<line x1="60" y1="199.3" x2="670" y2="199.3" stroke="#eee" stroke-width="0.5"/>
<text x="52" y="203.3" text-anchor="end" font-size="9" fill="#888">27</text>
<line x1="60" y1="154.7" x2="670" y2="154.7" stroke="#eee" stroke-width="0.5"/>
<text x="52" y="158.7" text-anchor="end" font-size="9" fill="#888">54</text>
<line x1="60" y1="110.0" x2="670" y2="110.0" stroke="#eee" stroke-width="0.5"/>
<text x="52" y="114.0" text-anchor="end" font-size="9" fill="#888">81</text>
<line x1="60" y1="65.3" x2="670" y2="65.3" stroke="#eee" stroke-width="0.5"/>
<text x="52" y="69.3" text-anchor="end" font-size="9" fill="#888">108</text>
<line x1="60" y1="244.0" x2="670" y2="244.0" stroke="#ccc" stroke-width="1"/>
<text x="143.2" y="258.0" text-anchor="middle" font-size="9" fill="#888">-0.4</text>
<text x="254.1" y="258.0" text-anchor="middle" font-size="9" fill="#888">-0.2</text>
<text x="365.0" y="258.0" text-anchor="middle" font-size="9" fill="#888">+0.0</text>
<text x="475.9" y="258.0" text-anchor="middle" font-size="9" fill="#888">+0.2</text>
<text x="586.8" y="258.0" text-anchor="middle" font-size="9" fill="#888">+0.4</text>
<text x="14" y="153.0" text-anchor="middle" font-size="10" fill="#888" transform="rotate(-90, 14, 153.0)">count of tasks</text>
<text x="350.0" y="294" text-anchor="middle" font-size="10" fill="#888">delta (pass rate difference)</text>
<rect x="60.5" y="172.9" width="29.5" height="71.1" fill="#cc3e40" opacity="0.7"/>
<rect x="91.0" y="224.1" width="29.5" height="19.9" fill="#cc3e40" opacity="0.7"/>
<rect x="121.5" y="201.0" width="29.5" height="43.0" fill="#cc3e40" opacity="0.7"/>
<rect x="152.0" y="189.4" width="29.5" height="54.6" fill="#cc3e40" opacity="0.7"/>
<rect x="182.5" y="215.9" width="29.5" height="28.1" fill="#cc3e40" opacity="0.7"/>
<rect x="213.0" y="171.2" width="29.5" height="72.8" fill="#cc3e40" opacity="0.7"/>
<rect x="243.5" y="166.2" width="29.5" height="77.8" fill="#cc3e40" opacity="0.7"/>
<rect x="274.0" y="172.9" width="29.5" height="71.1" fill="#cc3e40" opacity="0.7"/>
<rect x="304.5" y="68.6" width="29.5" height="175.4" fill="#cc3e40" opacity="0.7"/>
<rect x="335.0" y="141.4" width="29.5" height="102.6" fill="#cc3e40" opacity="0.7"/>
<rect x="365.5" y="139.8" width="29.5" height="104.2" fill="#2d9a3e" opacity="0.7"/>
<rect x="396.0" y="70.3" width="29.5" height="173.7" fill="#2d9a3e" opacity="0.7"/>
<rect x="426.5" y="161.3" width="29.5" height="82.7" fill="#2d9a3e" opacity="0.7"/>
<rect x="457.0" y="143.1" width="29.5" height="100.9" fill="#2d9a3e" opacity="0.7"/>
<rect x="487.5" y="144.7" width="29.5" height="99.3" fill="#2d9a3e" opacity="0.7"/>
<rect x="518.0" y="182.8" width="29.5" height="61.2" fill="#2d9a3e" opacity="0.7"/>
<rect x="548.5" y="151.3" width="29.5" height="92.7" fill="#2d9a3e" opacity="0.7"/>
<rect x="579.0" y="136.5" width="29.5" height="107.5" fill="#2d9a3e" opacity="0.7"/>
<rect x="609.5" y="214.2" width="29.5" height="29.8" fill="#2d9a3e" opacity="0.7"/>
<rect x="640.0" y="105.0" width="29.5" height="139.0" fill="#2d9a3e" opacity="0.7"/>
<line x1="365.0" y1="62" x2="365.0" y2="244.0" stroke="#999" stroke-width="1" stroke-dasharray="4,3"/>
<line x1="401.1" y1="62" x2="401.1" y2="244.0" stroke="#333" stroke-width="1.5"/>
<text x="406.1" y="74" text-anchor="start" font-size="10" font-weight="600" fill="#333">mean = +0.065</text>
<text x="666" y="74" text-anchor="end" font-size="10" fill="#333">589 of 1032 tasks have positive delta (57%)</text>
<text x="666" y="88" text-anchor="end" font-size="10" font-weight="600" fill="#888">sign test p &lt; 0.001</text>
</svg>